HIERARCHY
ROOT Hips
{
	OFFSET 0.000000 0.000000 0.000000
	CHANNELS 6 Xposition Yposition Zposition Xrotation Yrotation Zrotation
	JOINT LeftUpLeg_virtual
	{
		OFFSET 0.000000 0.000000 0.000000
		CHANNELS 3 Xrotation Yrotation Zrotation
		JOINT LeftUpLeg
		{
			OFFSET 10.205400 -3.823500 0.155100
			CHANNELS 3 Xrotation Yrotation Zrotation
			JOINT LeftLeg
			{
				OFFSET 0.708757 -12.982077 0.567790
				CHANNELS 3 Xrotation Yrotation Zrotation
				JOINT LeftFoot
				{
					OFFSET -0.708756 -10.717838 -2.184338
					CHANNELS 3 Xrotation Yrotation Zrotation
					JOINT LeftToeBase
					{
						OFFSET 0.108149 -7.191104 7.560241
						CHANNELS 3 Xrotation Yrotation Zrotation
						JOINT LeftToe_End
						{
							OFFSET 0.070230 0.081724 4.490308
							CHANNELS 3 Xrotation Yrotation Zrotation
							End Site
							{
								OFFSET 0 0 0
							}
						}
					}
				}
			}
		}
	}
	JOINT RightUpLeg_virtual
	{
		OFFSET 0.000000 0.000000 0.000000
		CHANNELS 3 Xrotation Yrotation Zrotation
		JOINT RightUpLeg
		{
			OFFSET -10.205400 -3.823500 0.005500
			CHANNELS 3 Xrotation Yrotation Zrotation
			JOINT RightLeg
			{
				OFFSET -0.708756 -12.982134 0.610632
				CHANNELS 3 Xrotation Yrotation Zrotation
				JOINT RightFoot
				{
					OFFSET 0.708754 -10.717769 -1.945823
					CHANNELS 3 Xrotation Yrotation Zrotation
					JOINT RightToeBase
					{
						OFFSET -0.108140 -7.191069 7.372968
						CHANNELS 3 Xrotation Yrotation Zrotation
						JOINT RightToe_End
						{
							OFFSET -0.070227 0.081735 4.479403
							CHANNELS 3 Xrotation Yrotation Zrotation
							End Site
							{
								OFFSET 0 0 0
							}
						}
					}
				}
			}
		}
	}
	JOINT Spine_virtual
	{
		OFFSET 0.000000 0.000000 0.000000
		CHANNELS 3 Xrotation Yrotation Zrotation
		JOINT Spine
		{
			OFFSET 0.000000 6.876099 0.125700
			CHANNELS 3 Xrotation Yrotation Zrotation
			JOINT Spine1
			{
				OFFSET 0.000000 5.730043 0.104720
				CHANNELS 3 Xrotation Yrotation Zrotation
				JOINT Spine1_split
				{
					OFFSET 0.000000 5.730043 0.104720
					CHANNELS 3 Xrotation Yrotation Zrotation
					JOINT Spine2
					{
						OFFSET 0.000000 5.730043 0.104720
						CHANNELS 3 Xrotation Yrotation Zrotation
						JOINT Neck_virtual
						{
							OFFSET 0.000000 0.000000 0.000000
							CHANNELS 3 Xrotation Yrotation Zrotation
							JOINT Neck
							{
								OFFSET 0.000000 10.314075 0.188496
								CHANNELS 3 Xrotation Yrotation Zrotation
								JOINT Head
								{
									OFFSET 0.000000 7.643700 -2.377400
									CHANNELS 3 Xrotation Yrotation Zrotation
									JOINT HeadTop_End
									{
										OFFSET 0.000000 43.788605 -13.619600
										CHANNELS 3 Xrotation Yrotation Zrotation
										End Site
										{
											OFFSET 0 0 0
										}
									}
								}
							}
						}
						JOINT LeftShoulder_virtual
						{
							OFFSET 0.000000 0.000000 0.000000
							CHANNELS 3 Xrotation Yrotation Zrotation
							JOINT LeftShoulder
							{
								OFFSET 2.196100 4.412489 0.087492
								CHANNELS 3 Xrotation Yrotation Zrotation
								JOINT LeftShoulder_split
								{
									OFFSET 2.196100 4.412489 0.087492
									CHANNELS 3 Xrotation Yrotation Zrotation
									JOINT LeftArm
									{
										OFFSET 8.771219 -2.981674 -0.026999
										CHANNELS 3 Xrotation Yrotation Zrotation
										JOINT LeftForeArm
										{
											OFFSET 8.512804 0.000000 -0.000000
											CHANNELS 3 Xrotation Yrotation Zrotation
											JOINT LeftHand
											{
												OFFSET 18.484802 0.000000 -0.000000
												CHANNELS 3 Xrotation Yrotation Zrotation
												End Site
												{
													OFFSET 0 0 0
												}
											}
										}
									}
								}
							}
						}
						JOINT RightShoulder_virtual
						{
							OFFSET 0.000000 0.000000 0.000000
							CHANNELS 3 Xrotation Yrotation Zrotation
							JOINT RightShoulder
							{
								OFFSET -2.196100 4.412496 0.070690
								CHANNELS 3 Xrotation Yrotation Zrotation
								JOINT RightShoulder_split
								{
									OFFSET -2.196100 4.412496 0.070690
									CHANNELS 3 Xrotation Yrotation Zrotation
									JOINT RightArm
									{
										OFFSET -8.771282 -2.981682 -0.094208
										CHANNELS 3 Xrotation Yrotation Zrotation
										JOINT RightForeArm
										{
											OFFSET -8.494598 0.000000 0.000000
											CHANNELS 3 Xrotation Yrotation Zrotation
											JOINT RightHand
											{
												OFFSET -18.483803 0.000000 0.000001
												CHANNELS 3 Xrotation Yrotation Zrotation
												End Site
												{
													OFFSET 0 0 0
												}
											}
										}
									}
								}
							}
						}
					}
				}
			}
		}
	}
}
MOTION
Frames: 7
Frame Time: 0.03333333
-48.023094 15.173670 11.604591 0.000000 0.000000 0.000000 12.355585 -0.969520 -38.486439 -132.633381 1.842221 9.003580 47.561114 25.387337 3.524924 44.929302 -13.463122 30.774377 1.380047 6.102050 5.460095 0.000000 0.000000 0.000000 15.188227 4.842837 -39.854871 -94.651163 -7.068154 -20.178204 113.538583 16.684728 4.126925 5.410984 -4.891341 13.085363 -21.137419 -4.944307 -8.430823 0.000000 0.000000 0.000000 12.643676 8.937748 -43.309014 19.729900 -2.763920 -10.082274 5.278560 -2.762486 -2.275518 0.395367 0.779646 0.181790 0.000000 0.000000 0.000000 6.329772 -0.377338 -3.188517 0.176840 -2.118266 4.309145 -31.489774 -9.873981 4.763831 0.000000 0.000000 0.000000 5.805365 -1.875704 -3.258720 -0.509070 -12.734655 -11.705936 -2.370045 -1.461806 0.036525 -61.907865 42.914925 -5.342822 -1.218669 -65.814617 -2.818086 0.000000 0.000000 0.000000 8.141314 -0.629275 -3.140675 -10.014274 4.162490 2.098220 15.553686 2.460238 -0.513881 -28.453269 -12.634649 -10.610646 -24.630417 46.734186 14.760700 0.000000 0.000000 0.000000 
-47.750359 15.901979 10.437554 0.000000 0.000000 0.000000 13.362397 -1.258713 -40.188253 -131.727288 2.842388 8.977721 55.940018 30.030617 -1.551188 36.656884 -8.991558 35.234272 5.124046 5.563723 1.399262 0.000000 0.000000 0.000000 15.945212 5.339890 -41.984848 -88.664140 -10.793027 -17.936101 106.352657 16.532427 3.174746 7.154667 -3.803371 18.628036 -16.681588 -2.479538 -11.915537 0.000000 0.000000 0.000000 12.755565 9.715062 -45.124061 19.877551 -4.012939 -11.007495 5.497743 -3.289512 -1.902945 0.349058 0.633649 0.156639 0.000000 0.000000 0.000000 5.878028 -0.708788 -2.986141 1.380199 -2.439404 5.308612 -31.152162 -7.014062 5.006585 0.000000 0.000000 0.000000 5.809027 -2.362428 -2.949823 0.004500 -12.642352 -10.173826 -2.203149 -1.580657 0.033129 -65.384527 41.487959 -5.354895 0.850220 -62.940630 -1.295752 0.000000 0.000000 0.000000 7.894465 -1.030070 -2.733209 -10.370996 1.947364 0.510605 16.145715 2.648710 -0.579973 -27.584738 -15.833652 -12.851843 -24.610859 46.897380 14.806028 0.000000 0.000000 0.000000 
-47.580078 16.803173 9.206738 0.000000 0.000000 0.000000 15.014182 -1.523474 -42.059530 -131.791273 2.453998 10.180038 71.562767 31.762067 -10.216940 28.180695 -6.017456 38.307171 6.634779 4.712864 -3.189601 0.000000 0.000000 0.000000 18.207870 7.337378 -44.967804 -82.153918 -14.334260 -14.985288 96.810698 16.422775 2.804763 11.006262 -2.844903 23.995353 -9.465616 -0.832432 -15.965654 0.000000 0.000000 0.000000 13.850507 10.621547 -47.395762 20.312901 -5.360797 -11.274918 5.783603 -3.799044 -1.225148 0.280649 0.583284 0.093818 0.000000 0.000000 0.000000 5.444570 -0.998121 -2.482426 2.746728 -2.491427 5.814331 -30.418674 -3.334027 4.740898 0.000000 0.000000 0.000000 5.675984 -2.770258 -2.345087 0.439478 -12.968572 -8.557258 -1.696832 -1.530243 -0.168192 -69.901242 39.808159 -4.413806 1.749991 -58.510911 -0.717548 0.000000 0.000000 0.000000 7.608613 -1.373934 -1.961831 -10.747533 -0.679240 -0.487938 16.633312 2.598750 -0.999810 -27.685175 -20.066245 -13.015194 -24.566459 47.224693 14.675211 0.000000 0.000000 0.000000 
-47.484558 17.957264 7.883224 0.000000 0.000000 0.000000 17.223388 -0.889925 -44.127001 -131.093077 1.535814 12.167282 89.037219 29.177127 -18.940436 20.075997 -5.292091 39.428046 1.492677 3.868324 -6.019255 0.000000 0.000000 0.000000 21.989217 10.310490 -48.711383 -75.892875 -16.984799 -11.566305 84.017604 15.958802 3.122461 16.047060 -1.873590 28.086242 0.712805 -0.318606 -20.464613 0.000000 0.000000 0.000000 15.558263 11.274418 -49.903199 21.033238 -6.739223 -10.771159 6.058870 -4.223424 -0.384110 0.231410 0.676270 0.059276 0.000000 0.000000 0.000000 5.063609 -1.235436 -1.798284 4.295704 -2.214814 5.511469 -29.067560 1.106507 4.064973 0.000000 0.000000 0.000000 5.410837 -3.078314 -1.583457 0.732308 -13.689330 -7.228233 -0.618972 -1.239804 -0.279951 -74.892806 37.783896 -2.923253 2.023857 -53.477902 -0.619300 0.000000 0.000000 0.000000 7.267166 -1.620597 -0.990889 -11.079252 -3.542732 -0.956451 17.126418 2.340597 -1.500487 -28.113936 -25.117273 -11.379850 -24.374442 47.675072 14.287042 0.000000 0.000000 0.000000 
-47.400261 19.313379 6.405822 0.000000 0.000000 0.000000 19.713939 0.737796 -46.178964 -128.169470 0.664613 14.142168 102.787571 24.201493 -24.267976 10.544208 -7.060969 38.214208 -10.488329 3.242387 -6.225501 0.000000 0.000000 0.000000 26.543181 13.375393 -52.631409 -71.302066 -18.460608 -8.437517 68.428018 14.900959 3.605870 21.666134 -0.551981 31.048585 10.271659 -0.524111 -25.925931 0.000000 0.000000 0.000000 17.767878 11.420799 -52.392045 22.008362 -8.054140 -9.576957 6.225418 -4.509429 0.462406 0.203374 0.813551 0.077031 0.000000 0.000000 0.000000 4.771856 -1.444634 -1.101376 5.871608 -1.579843 4.257068 -27.058042 5.854095 3.006235 0.000000 0.000000 0.000000 5.110181 -3.343544 -0.835338 0.834746 -14.869713 -6.487518 0.666288 -0.461500 -0.461543 -79.837678 34.647883 -1.684907 2.509783 -47.668713 -0.408310 0.000000 0.000000 0.000000 6.867774 -1.797447 -0.013041 -11.321826 -6.382660 -1.018019 17.845199 2.153743 -2.112816 -28.163725 -30.428264 -8.397368 -23.882071 47.904071 13.488160 0.000000 0.000000 0.000000 
-47.304916 20.752586 5.029574 0.000000 0.000000 0.000000 22.561715 2.869012 -47.878130 -122.603453 0.622800 16.992244 111.562227 19.818830 -27.756629 -2.569572 -10.154886 35.985446 -21.945760 2.511991 -6.176978 0.000000 0.000000 0.000000 30.188630 15.047412 -55.370431 -69.460572 -18.741095 -6.520998 52.188625 13.916469 3.493240 27.920599 1.759501 34.158360 15.267952 -0.688803 -32.607589 0.000000 0.000000 0.000000 20.031302 11.307902 -54.196308 23.125950 -9.252107 -7.980318 6.223402 -4.669700 1.107804 0.183937 0.836632 0.042868 0.000000 0.000000 0.000000 4.501634 -1.638825 -0.563122 7.318900 -0.628369 2.233814 -24.444984 10.402724 1.631322 0.000000 0.000000 0.000000 4.852212 -3.616054 -0.252804 0.755308 -16.570585 -6.277588 2.063961 0.332058 -0.608455 -83.929084 30.062340 -1.081263 3.071474 -40.912130 -0.078745 0.000000 0.000000 0.000000 6.436016 -1.949816 0.786577 -11.421036 -8.830053 -0.876777 18.468012 2.059932 -2.572905 -27.166797 -35.327094 -4.442965 -22.968818 47.488714 12.140543 0.000000 0.000000 0.000000 
-47.168610 22.082407 3.689663 0.000000 0.000000 0.000000 25.504565 5.495327 -48.999080 -115.493800 1.304781 21.019333 116.196831 16.927164 -30.858098 -15.876698 -12.374588 32.134281 -26.650039 2.172687 -8.314790 0.000000 0.000000 0.000000 31.875298 15.428269 -56.309049 -70.630481 -18.075368 -6.120498 38.175946 13.905002 2.425616 33.021110 5.058842 38.128623 15.532549 -0.376524 -40.242798 0.000000 0.000000 0.000000 21.960154 11.520598 -55.058131 24.398202 -10.396336 -6.463199 6.107546 -4.808621 1.433363 0.180480 0.668290 0.025527 0.000000 0.000000 0.000000 4.181095 -1.818009 -0.266341 8.418325 0.564575 -0.163994 -21.511713 14.522864 0.131761 0.000000 0.000000 0.000000 4.771325 -3.935935 0.133305 0.504330 -18.848115 -6.474152 3.253140 1.048155 -0.712705 -86.881625 24.034036 -1.277524 3.447637 -33.202994 0.269182 0.000000 0.000000 0.000000 6.066633 -2.118283 1.284746 -11.323168 -10.406287 -0.656574 19.005355 2.445711 -2.590123 -25.085116 -38.797230 -0.201963 -21.732743 46.128820 10.291330 0.000000 0.000000 0.000000 
